<svg xmlns="http://www.w3.org/2000/svg" xmlns:xlink="http://www.w3.org/1999/xlink" width="100" height="100" viewBox="0 0 100 100">
  <defs>
    <clipPath id="clip-cart">
      <rect width="100" height="100"/>
    </clipPath>
  </defs>
  <g id="cart" clip-path="url(#clip-cart)">
    <g id="shopping-cart" transform="translate(6 1.972)">
      <g id="Group_2" data-name="Group 2" transform="translate(0 6.028)">
        <g id="Group_1" data-name="Group 1">
          <path id="Path_1" data-name="Path 1" d="M105.747,350.322a9.094,9.094,0,1,0,9.094,9.094A9.094,9.094,0,0,0,105.747,350.322Zm0,14.146a5.052,5.052,0,1,1,5.052-5.052A5.052,5.052,0,0,1,105.747,364.468Z" transform="translate(-77.96 -283.735)" fill="#fff"/>
          <path id="Path_2" data-name="Path 2" d="M304.278,350.322a9.094,9.094,0,1,0,9.094,9.094A9.094,9.094,0,0,0,304.278,350.322Zm0,14.146a5.052,5.052,0,1,1,5.052-5.052A5.052,5.052,0,0,1,304.278,364.468Z" transform="translate(-238.095 -283.735)" fill="#fff"/>
          <path id="Path_3" data-name="Path 3" d="M86.694,19.568a2.527,2.527,0,0,0-1.617-.808L19.3,17.85,17.48,12.293a9.3,9.3,0,0,0-8.69-6.265H2.021a2.021,2.021,0,1,0,0,4.042h6.77a5.255,5.255,0,0,1,4.85,3.537l12.832,38.7-1.01,2.324a9.7,9.7,0,0,0,.909,8.791,9.4,9.4,0,0,0,7.578,4.244H73.256a2.021,2.021,0,0,0,0-4.042H33.95A5.153,5.153,0,0,1,29.706,61.2a5.557,5.557,0,0,1-.505-4.85l.808-1.819,42.539-4.446a11.115,11.115,0,0,0,9.6-8.488L87,21.285A1.718,1.718,0,0,0,86.694,19.568ZM78.206,40.685a6.871,6.871,0,0,1-6.163,5.355L30.01,50.385l-9.4-28.494,61.939.909Z" transform="translate(0 -6.028)" fill="#fff"/>
        </g>
      </g>
    </g>
  </g>
</svg>
